:FULLY-SPECIFIED
:FORCE-ALL-JOINTS-BE-3DOF
:DEGREES
2956
root -5.76605 13.3936 -29.1184 1236.34 -66.435 -153.309
lfemur -67.5388 42.9382 -6.94262
ltibia 76.8132 0 0
lfoot -8.08199 -2.6695 0
ltoes -38.769 0 0
rfemur -33.8199 -17.3274 23.0436
rtibia 89.9008 0 0
rfoot -40.3354 -29.8291 0
rtoes -13.6594 0 0
lowerback 16.1482 5.26058 1.42892
upperback -4.36768 7.57494 1.44878
thorax -14.0006 3.44895 -1.29287
lowerneck -2.80302 9.10656 1.46963
upperneck 8.16177 11.8978 1.99859
head 3.12602 5.99477 0.857866
lclavicle -2.04789e-14 2.56902e-14 0
lhumerus 6.11916 13.6813 83.1604
lradius 90.6638 0 0
lwrist -18.07 0 0
lhand -39.5085 391.484 0
lfingers 7.12502 0 0
lthumb -12.4932 -658.928 0
rclavicle -2.04789e-14 2.56902e-14 0
rhumerus -55.8129 49.6462 -109.955
rradius 112.692 0 0
rwrist -81.6061 0 0
rhand 7.05334 -385.567 0
rfingers 7.12502 0 0
rthumb 32.3181 307.378 0
2957
root -5.7152 13.4382 -29.1833 1235.74 -66.4274 -152.685
lfemur -67.5186 42.775 -6.99083
ltibia 76.6488 0 0
lfoot -8.07093 -2.58606 0
ltoes -38.7646 0 0
rfemur -33.8256 -17.2436 23.0929
rtibia 89.8156 0 0
rfoot -40.2703 -29.82 0
rtoes -13.6614 0 0
lowerback 16.1467 5.24993 1.42853
upperback -4.35538 7.55962 1.44522
thorax -13.9853 3.44207 -1.29182
lowerneck -2.7866 9.053 1.43145
upperneck 8.11168 11.8276 2.01447
head 3.10825 5.95939 0.867693
lclavicle -2.08505e-14 2.56215e-14 0
lhumerus 6.17423 13.601 83.1499
lradius 90.6135 0 0
lwrist -17.9947 0 0
lhand -39.4532 391.5 0
lfingers 7.12502 0 0
lthumb -12.4399 -658.91 0
rclavicle -2.08505e-14 2.56215e-14 0
rhumerus -55.4751 49.4908 -109.765
rradius 112.652 0 0
rwrist -81.4976 0 0
rhand 6.95213 -385.591 0
rfingers 7.12502 0 0
rthumb 32.221 307.342 0
2958
root -5.66436 13.4828 -29.2482 1235.22 -66.4207 -152.141
lfemur -67.5004 42.6332 -7.0325
ltibia 76.5054 0 0
lfoot -8.06045 -2.51428 0
ltoes -38.7577 0 0
rfemur -33.8298 -17.171 23.1357
rtibia 89.7408 0 0
rfoot -40.2136 -29.8115 0
rtoes -13.6626 0 0
lowerback 16.1453 5.24081 1.42812
upperback -4.34477 7.5465 1.44217
thorax -13.9722 3.43618 -1.29088
lowerneck -2.77215 9.00634 1.39839
upperneck 8.06839 11.7664 2.02848
head 3.09285 5.92857 0.876272
lclavicle -2.11109e-14 2.55532e-14 0
lhumerus 6.22199 13.5304 83.1413
lradius 90.5704 0 0
lwrist -17.9291 0 0
lhand -39.4047 391.512 0
lfingers 7.12502 0 0
lthumb -12.3931 -658.897 0
rclavicle -2.11109e-14 2.55532e-14 0
rhumerus -55.1811 49.3556 -109.599
rradius 112.617 0 0
rwrist -81.4036 0 0
rhand 6.86417 -385.613 0
rfingers 7.12502 0 0
rthumb 32.1366 307.31 0
2959
root -5.61352 13.5274 -29.3132 1234.75 -66.4148 -151.66
lfemur -67.4837 42.5081 -7.06903
ltibia 76.3783 0 0
lfoot -8.05019 -2.4518 0
ltoes -38.748 0 0
rfemur -33.8327 -17.1073 23.1735
rtibia 89.6738 0 0
rfoot -40.1635 -29.8035 0
rtoes -13.6629 0 0
lowerback 16.1441 5.23293 1.42768
upperback -4.33551 7.53513 1.43953
thorax -13.9607 3.43108 -1.29001
lowerneck -2.75918 8.96503 1.36936
upperneck 8.03043 11.7122 2.04109
head 3.07931 5.90127 0.88389
lclavicle -2.12683e-14 2.54828e-14 0
lhumerus 6.26403 13.4669 83.1342
lradius 90.533 0 0
lwrist -17.871 0 0
lhand -39.3613 391.52 0
lfingers 7.12502 0 0
lthumb -12.3512 -658.887 0
rclavicle -2.12683e-14 2.54828e-14 0
rhumerus -54.9212 49.2361 -109.453
rradius 112.587 0 0
rwrist -81.3209 0 0
rhand 6.78655 -385.632 0
rfingers 7.12502 0 0
rthumb 32.0621 307.282 0
2960
root -5.56268 13.572 -29.3781 1234.33 -66.4095 -151.224
lfemur -67.4677 42.3948 -7.10178
ltibia 76.2626 0 0
lfoot -8.03981 -2.39621 0
ltoes -38.7355 0 0
rfemur -33.8343 -17.0499 23.2078
rtibia 89.6122 0 0
rfoot -40.1181 -29.7956 0
rtoes -13.6625 0 0
lowerback 16.1429 5.22598 1.42718
upperback -4.32725 7.52508 1.4372
thorax -13.9504 3.42659 -1.28917
lowerneck -2.7472 8.92752 1.34327
upperneck 7.99639 11.6629 2.05275
head 3.06712 5.87648 0.890831
lclavicle -2.1331e-14 2.54082e-14 0
lhumerus 6.30195 13.4083 83.1283
lradius 90.4998 0 0
lwrist -17.8184 0 0
lhand -39.3214 391.525 0
lfingers 7.12502 0 0
lthumb -12.3127 -658.881 0
rclavicle -2.1331e-14 2.54082e-14 0
rhumerus -54.6857 49.1277 -109.32
rradius 112.559 0 0
rwrist -81.2466 0 0
rhand 6.71633 -385.65 0
rfingers 7.12502 0 0
rthumb 31.9948 307.256 0
2961
root -5.51183 13.6166 -29.443 1233.94 -66.4045 -150.814
lfemur -67.4519 42.2888 -7.13214
ltibia 76.1536 0 0
lfoot -8.02894 -2.34516 0
ltoes -38.7197 0 0
rfemur -33.8348 -16.9967 23.2399
rtibia 89.5536 0 0
rfoot -40.0756 -29.7876 0
rtoes -13.6614 0 0
lowerback 16.1418 5.21967 1.42662
upperback -4.31963 7.51592 1.43508
thorax -13.941 3.42251 -1.28834
lowerneck -2.73575 8.89225 1.31901
upperneck 7.96482 11.6166 2.06395
head 3.05576 5.85316 0.897382
lclavicle -2.13073e-14 2.53268e-14 0
lhumerus 6.33733 13.3522 83.1235
lradius 90.4695 0 0
lwrist -17.7689 0 0
lhand -39.2834 391.528 0
lfingers 7.12502 0 0
lthumb -12.276 -658.877 0
rclavicle -2.13073e-14 2.53268e-14 0
rhumerus -54.4648 49.026 -109.196
rradius 112.533 0 0
rwrist -81.1773 0 0
rhand 6.65061 -385.666 0
rfingers 7.12502 0 0
rthumb 31.9317 307.231 0
2962
root -5.46099 13.6613 -29.5079 1233.55 -66.3996 -150.413
lfemur -67.4357 42.1853 -7.1615
ltibia 76.0465 0 0
lfoot -8.01724 -2.29624 0
ltoes -38.7005 0 0
rfemur -33.8343 -16.945 23.2713
rtibia 89.4953 0 0
rfoot -40.0339 -29.7792 0
rtoes -13.6595 0 0
lowerback 16.1407 5.21368 1.42598
upperback -4.31231 7.50721 1.43307
thorax -13.9319 3.41864 -1.28748
lowerneck -2.72434 8.85768 1.29549
upperneck 7.93428 11.5711 2.07514
head 3.04472 5.8303 0.903826
lclavicle -2.12053e-14 2.52365e-14 0
lhumerus 6.37176 13.2962 83.1193
lradius 90.4406 0 0
lwrist -17.7205 0 0
lhand -39.2456 391.528 0
lfingers 7.12502 0 0
lthumb -12.2395 -658.876 0
rclavicle -2.12053e-14 2.52365e-14 0
rhumerus -54.2487 48.9265 -109.074
rradius 112.508 0 0
rwrist -81.1101 0 0
rhand 6.58645 -385.683 0
rfingers 7.12502 0 0
rthumb 31.8702 307.207 0
2963
root -5.41015 13.7059 -29.5729 1233.15 -66.3946 -150.002
lfemur -67.4185 42.0796 -7.19125
ltibia 75.9365 0 0
lfoot -8.00434 -2.24709 0
ltoes -38.6776 0 0
rfemur -33.833 -16.8925 23.3034
rtibia 89.4349 0 0
rfoot -39.9913 -29.77 0
rtoes -13.657 0 0
lowerback 16.1395 5.20772 1.42525
upperback -4.30493 7.49852 1.43107
thorax -13.9227 3.41478 -1.28657
lowerneck -2.71248 8.82225 1.27161
upperneck 7.90334 11.5244 2.08679
head 3.0335 5.80686 0.910451
lclavicle -2.10333e-14 2.51349e-14 0
lhumerus 6.40681 13.238 83.1156
lradius 90.4117 0 0
lwrist -17.6709 0 0
lhand -39.2065 391.526 0
lfingers 7.12502 0 0
lthumb -12.2018 -658.877 0
rclavicle -2.10333e-14 2.51349e-14 0
rhumerus -54.0276 48.8247 -108.949
rradius 112.483 0 0
rwrist -81.0418 0 0
rhand 6.52093 -385.7 0
rfingers 7.12502 0 0
rthumb 31.8073 307.182 0
2964
root -5.35931 13.7505 -29.6378 1232.73 -66.3893 -149.564
lfemur -67.3997 41.9669 -7.22275
ltibia 75.8189 0 0
lfoot -7.9899 -2.19533 0
ltoes -38.6507 0 0
rfemur -33.8311 -16.8368 23.3376
rtibia 89.3699 0 0
rfoot -39.9458 -29.7598 0
rtoes -13.6539 0 0
lowerback 16.1383 5.20148 1.42442
upperback -4.29713 7.48941 1.42898
thorax -13.913 3.41074 -1.28557
lowerneck -2.6997 8.78441 1.24628
upperneck 7.87055 11.4746 2.09937
head 3.02158 5.78183 0.91754
lclavicle -2.07997e-14 2.50197e-14 0
lhumerus 6.44409 13.1752 83.1119
lradius 90.3814 0 0
lwrist -17.6179 0 0
lhand -39.1644 391.522 0
lfingers 7.12502 0 0
lthumb -12.1612 -658.88 0
rclavicle -2.07997e-14 2.50197e-14 0
rhumerus -53.7918 48.7161 -108.816
rradius 112.456 0 0
rwrist -80.9692 0 0
rhand 6.45112 -385.719 0
rfingers 7.12502 0 0
rthumb 31.7403 307.155 0
2965
root -5.30846 13.7951 -29.7027 1232.26 -66.3834 -149.079
lfemur -67.3786 41.8426 -7.25741
ltibia 75.689 0 0
lfoot -7.97357 -2.13856 0
ltoes -38.6196 0 0
rfemur -33.8285 -16.7755 23.3753
rtibia 89.2978 0 0
rfoot -39.8957 -29.7483 0
rtoes -13.6501 0 0
lowerback 16.1369 5.19467 1.42346
upperback -4.28857 7.47944 1.42669
thorax -13.9024 3.40633 -1.28445
lowerneck -2.6855 8.74261 1.21839
upperneck 7.83449 11.4195 2.11334
head 3.00845 5.75417 0.92538
lclavicle -2.05125e-14 2.48884e-14 0
lhumerus 6.48517 13.1055 83.1082
lradius 90.3482 0 0
lwrist -17.5594 0 0
lhand -39.1178 391.517 0
lfingers 7.12502 0 0
lthumb -12.1161 -658.883 0
rclavicle -2.05125e-14 2.48884e-14 0
rhumerus -53.5314 48.5962 -108.669
rradius 112.426 0 0
rwrist -80.8893 0 0
rhand 6.37411 -385.739 0
rfingers 7.12502 0 0
rthumb 31.6665 307.126 0
2966
root -5.25762 13.8397 -29.7677 1231.73 -66.3768 -148.531
lfemur -67.3547 41.7019 -7.2966
ltibia 75.5419 0 0
lfoot -7.95497 -2.07442 0
ltoes -38.5841 0 0
rfemur -33.8256 -16.7062 23.418
rtibia 89.2162 0 0
rfoot -39.8389 -29.7353 0
rtoes -13.6458 0 0
lowerback 16.1353 5.18697 1.42236
upperback -4.2789 7.46818 1.4241
thorax -13.8904 3.40135 -1.28317
lowerneck -2.66942 8.69531 1.18684
upperneck 7.79371 11.3571 2.12918
head 2.9936 5.72287 0.934257
lclavicle -2.01801e-14 2.47389e-14 0
lhumerus 6.53165 13.0266 83.1039
lradius 90.3107 0 0
lwrist -17.4932 0 0
lhand -39.0649 391.511 0
lfingers 7.12502 0 0
lthumb -12.0651 -658.887 0
rclavicle -2.01801e-14 2.47389e-14 0
rhumerus -53.2368 48.4605 -108.503
rradius 112.392 0 0
rwrist -80.7989 0 0
rhand 6.28698 -385.763 0
rfingers 7.12502 0 0
rthumb 31.5829 307.092 0
2967
root -5.20678 13.8843 -29.8326 1231.12 -66.3692 -147.901
lfemur -67.3273 41.5402 -7.3417
ltibia 75.3728 0 0
lfoot -7.93377 -2.00052 0
ltoes -38.5439 0 0
rfemur -33.8223 -16.6264 23.4671
rtibia 89.1224 0 0
rfoot -39.7736 -29.7205 0
rtoes -13.641 0 0
lowerback 16.1335 5.1781 1.42112
upperback -4.26776 7.4552 1.42112
thorax -13.8765 3.39561 -1.28171
lowerneck -2.65097 8.64093 1.15055
upperneck 7.74678 11.2855 2.14735
head 2.97651 5.6869 0.944454
lclavicle -1.98107e-14 2.45688e-14 0
lhumerus 6.5851 12.936 83.099
lradius 90.2675 0 0
lwrist -17.4171 0 0
lhand -39.0042 391.505 0
lfingers 7.12502 0 0
lthumb -12.0065 -658.892 0
rclavicle -1.98107e-14 2.45688e-14 0
rhumerus -52.8981 48.3045 -108.312
rradius 112.354 0 0
rwrist -80.695 0 0
rhand 6.18679 -385.789 0
rfingers 7.12502 0 0
rthumb 31.4868 307.054 0
2968
root -5.15594 13.9289 -29.8975 1230.42 -66.3603 -147.171
lfemur -67.2959 41.3527 -7.3941
ltibia 75.1771 0 0
lfoot -7.90961 -1.91449 0
ltoes -38.4987 0 0
rfemur -33.8189 -16.5338 23.5241
rtibia 89.0142 0 0
rfoot -39.698 -29.7034 0
rtoes -13.6356 0 0
lowerback 16.1314 5.16774 1.41972
upperback -4.2548 7.44007 1.41764
thorax -13.8604 3.38891 -1.28004
lowerneck -2.62967 8.57795 1.1084
upperneck 7.69225 11.2025 2.16831
head 2.95668 5.64522 0.956258
lclavicle -1.94125e-14 2.43757e-14 0
lhumerus 6.64712 12.8314 83.093
lradius 90.217 0 0
lwrist -17.329 0 0
lhand -38.9341 391.498 0
lfingers 7.12502 0 0
lthumb -11.9388 -658.896 0
rclavicle -1.94125e-14 2.43757e-14 0
rhumerus -52.5056 48.1237 -108.091
rradius 112.309 0 0
rwrist -80.5742 0 0
rhand 6.07062 -385.82 0
rfingers 7.12502 0 0
rthumb 31.3753 307.009 0
